# xmcd
#
# Track frame offsets: 
#        150
#        16737
#        31068
#        51683
#        72377
#        93038
#        112237
#        133351
#        150956
#        165669
#        179446
#        197603
#        215374
#        234892
#        250012
#        264480
#
# Disc length: 3703 seconds
#
# Revision: 0
# Processed by: cddbd v1.5.2PL0 Copyright (c) Steve Scherf et al.
# Submitted via: ExactAudioCopy v0.99pb4
#
DISCID=d50e7510
DTITLE=Savage-C and Shiesty - The President and The Pope
DYEAR=2012
DGENRE=Rap
TTITLE0=Brain On Drugs
TTITLE1=Charlie Brown
TTITLE2=Catch Me Feat Ad Kapone
TTITLE3=40 oz. Music
TTITLE4=Window Shopping Feat K Dinero
TTITLE5=Rain Coats
TTITLE6=Celebrity Rehab
TTITLE7=Mike Tyson
TTITLE8=Passports
TTITLE9=Weekend at Bernie's
TTITLE10=Ryan Braun Feat Mista Cane
TTITLE11=Life Alert
TTITLE12=Friar Tuck (The Weed Song)
TTITLE13=Not Enough Indians feat K Dinero
TTITLE14=The Sound Of Dirt (Remix)
TTITLE15=Requiem For A Dream
EXTD=
EXTT0=
EXTT1=
EXTT2=
EXTT3=
EXTT4=
EXTT5=
EXTT6=
EXTT7=
EXTT8=
EXTT9=
EXTT10=
EXTT11=
EXTT12=
EXTT13=
EXTT14=
EXTT15=
PLAYORDER=
